/* XPM */ static char *Close_xpm[] = {
"16 16 6 1",
"  c black",
". c navy",
"X c #808000",
"o c #808080",
"O c None",
"+ c gray100",
"OOOOOOOOOOOO...O",
"OOOOOOOOOOOO..OO",
"OOOOOOOOOOOO.O.O",
"OOO   OOOOOOOOO.",
"OO +++ OOOOOOOO.",
"Oo           oOO",
"O XXXXXXXXXXX OO",
"O XXXXXXXXXXX OO",
"O XXXXXXXXXXX OO",
"O XXXXXXXXXXX OO",
"O XXXXXXXXXXX OO",
"O XXXXXXXXXXX OO",
"O XXXXXXXXXXX OO",
"O             OO",
"OOOOOOOOOOOOOOOO",
"OOOOOOOOOOOOOOOO"
};
