/* XPM */ static char *Redo_xpm[] = {
"16 16 3 1",
"  c navy",
". c #808080",
"X c None",
"XXXXXXXXXXXXXXXX",
"XXXXXXXXXXXXXXXX",
"XXXXXXXXXXXXXXXX",
"XXXXXXXXXXXXXXXX",
"XXX.    .XXXXXXX",
"XX. XXXX. XXX XX",
"XX XXXXXXX X  XX",
"XX XXXXXXXX   XX",
"XX XXXXXXX    XX",
"XX. XXXXX     XX",
"XXX .XXXXXXXXXXX",
"XXXXXXXXXXXXXXXX",
"XXXXXXXXXXXXXXXX",
"XXXXXXXXXXXXXXXX",
"XXXXXXXXXXXXXXXX",
"XXXXXXXXXXXXXXXX"
};
