/* XPM */ static char *Undo_xpm[] = {
"16 16 3 1",
"  c navy",
". c #808080",
"X c None",
"XXXXXXXXXXXXXXXX",
"XXXXXXXXXXXXXXXX",
"XXXXXXXXXXXXXXXX",
"XXXXXXXXXXXXXXXX",
"XXXXXXX.    .XXX",
"XX XXX .XXXX .XX",
"XX  X XXXXXXX XX",
"XX   XXXXXXXX XX",
"XX    XXXXXXX XX",
"XX     XXXXX .XX",
"XXXXXXXXXXX. XXX",
"XXXXXXXXXXXXXXXX",
"XXXXXXXXXXXXXXXX",
"XXXXXXXXXXXXXXXX",
"XXXXXXXXXXXXXXXX",
"XXXXXXXXXXXXXXXX"
};
